<svg xmlns="http://www.w3.org/2000/svg" xmlns:xlink="http://www.w3.org/1999/xlink" width="300" zoomAndPan="magnify" viewBox="0 0 224.87999 449.999984" height="600" preserveAspectRatio="xMidYMid meet" version="1.0"><path fill="#373f47" d="M 71.972656 392.234375 C 65.152344 397.738281 63.3125 408.84375 70.648438 417.210938 C 79.699219 427.53125 98.136719 430.140625 107.648438 418.417969 C 113.976562 410.613281 114.292969 399.769531 114.316406 390.464844 C 114.320312 386.3125 114.316406 382.15625 114.304688 378.003906 L 114.296875 376.085938 L 114.296875 343.542969 C 113.988281 343.523438 113.671875 343.5 113.355469 343.472656 C 92.355469 341.769531 62.160156 330.195312 49.023438 313.355469 C 39.433594 301.066406 33.273438 285.976562 32.480469 269.867188 C 31.839844 256.945312 34.539062 243.894531 40.132812 232.261719 C 46.003906 220.0625 54.367188 209.5625 63.699219 199.914062 C 76.476562 186.691406 101.6875 175.050781 114.09375 162.78125 L 114.296875 162.574219 L 114.613281 31.300781 C 113.761719 9.878906 136.828125 33.785156 139.082031 36.398438 C 149.636719 48.652344 159.246094 62.578125 164.476562 77.414062 C 168.765625 89.597656 170.09375 102.394531 166.550781 115.363281 C 164.988281 121.078125 162.792969 126.5625 160.105469 131.824219 C 153.675781 144.40625 132.632812 155.730469 122.566406 165.992188 L 122.566406 208.234375 C 122.855469 208.183594 123.140625 208.136719 123.425781 208.09375 C 144.167969 204.921875 170.066406 213.324219 181.574219 231.613281 C 187.6875 241.332031 190.445312 252.878906 191.351562 264.308594 C 192.996094 285.058594 187.773438 306.890625 173.683594 322.167969 C 161.585938 335.277344 140.371094 342.78125 122.574219 343.628906 L 122.566406 376.074219 C 122.621094 394.015625 125.136719 413.367188 111.585938 426.324219 C 97.332031 439.953125 69.40625 435.136719 60.246094 416.226562 C 56.667969 408.84375 56.132812 399.914062 60.550781 392.652344 C 66.933594 382.167969 81.238281 376.453125 92.285156 381.0625 C 97.566406 383.265625 101.140625 388.644531 101.476562 394.597656 L 101.488281 394.75 C 101.441406 395.058594 101.402344 395.3125 101.363281 395.523438 C 101.402344 395.949219 101.417969 396.382812 101.417969 396.816406 C 101.417969 405.136719 94.660156 411.890625 86.339844 411.890625 C 78.015625 411.890625 71.261719 405.136719 71.261719 396.816406 C 71.261719 395.21875 71.511719 393.675781 71.972656 392.234375 Z M 132.445312 215.628906 C 129.179688 215.664062 125.917969 215.988281 122.710938 216.605469 L 122.566406 335.351562 C 122.933594 335.335938 123.296875 335.308594 123.65625 335.289062 C 149.375 333.492188 172.710938 315.054688 178.300781 288.171875 C 183.394531 263.671875 178.179688 234.980469 157.03125 222.152344 C 149.863281 217.804688 141.449219 215.695312 133.023438 215.628906 C 132.832031 215.628906 132.636719 215.628906 132.445312 215.628906 Z M 78.03125 267.414062 C 76.296875 256.109375 77.726562 244.433594 83.273438 234.5625 C 89.789062 222.960938 101.246094 214.476562 114.050781 210.3125 L 114.296875 210.238281 L 114.296875 174.089844 C 114.152344 174.230469 114.003906 174.375 113.855469 174.511719 C 88.859375 198.125 58.996094 219.011719 52.527344 253.15625 C 49.578125 268.753906 52.277344 285.34375 60.160156 299.128906 C 71.507812 318.976562 91.617188 333.519531 114.296875 335.257812 L 114.296875 218.980469 C 113.984375 219.097656 113.667969 219.222656 113.351562 219.34375 C 98.484375 225.277344 86.71875 239.015625 85.578125 255.175781 C 85.5625 255.414062 85.550781 255.648438 85.535156 255.882812 C 87.746094 254.613281 90.308594 253.890625 93.035156 253.890625 C 101.359375 253.890625 108.117188 260.644531 108.117188 268.964844 C 108.117188 277.28125 101.359375 284.035156 93.035156 284.035156 C 84.710938 284.035156 77.953125 277.28125 77.953125 268.964844 C 77.953125 268.441406 77.984375 267.921875 78.03125 267.414062 Z M 122.566406 153.953125 C 135.207031 139.960938 146.644531 123.625 148.339844 104.84375 C 150.316406 82.898438 137.25 61.484375 123.113281 44.300781 L 122.566406 43.640625 C 122.566406 80.410156 122.566406 117.179688 122.566406 153.953125 " fill-opacity="1" fill-rule="nonzero"/></svg>